<?xml version="1.0" encoding="UTF-8"?>
<!-- Generated by Pixelmator Pro 3.5.8 -->
<svg width="501" height="521" viewBox="0 0 501 521" xmlns="http://www.w3.org/2000/svg">
    <g id="Objects">
        <g id="Group">
            <path id="Path" fill="none" stroke="#ff004f" stroke-width="25" stroke-linecap="round" stroke-linejoin="round" d="M 326.590088 105.361206 L 433.400391 105.361206 C 462.601685 105.361206 480.317139 137.578369 464.674927 162.236694 L 280.941162 451.872559 C 266.395386 474.802124 232.937988 474.802124 218.39209 451.872559 L 34.658325 162.236694 C 19.016296 137.578369 36.731689 105.361206 65.932922 105.361206 L 194.757446 105.361206"/>
            <g id="g1">
                <linearGradient id="linearGradient1" x1="232.86011" y1="379.558409" x2="286.21573" y2="42.121176" gradientUnits="userSpaceOnUse">
                    <stop offset="0" stop-color="#0078ff" stop-opacity="1"/>
                    <stop offset="1" stop-color="#00ff6f" stop-opacity="1"/>
                </linearGradient>
                <path id="path1" fill="url(#linearGradient1)" stroke="none" d="M 352.158325 205.237915 L 237.267456 383.318726 C 234.261597 387.977417 227.035828 385.848755 227.035828 380.304932 L 227.035828 232.734131 C 227.035828 228.146729 223.317078 224.428345 218.72998 224.428345 L 171.912537 224.428345 C 167.509155 224.428345 164.853333 219.553711 167.240417 215.854614 L 282.130859 37.773804 C 285.136597 33.11499 292.362915 35.243774 292.362915 40.787476 L 292.362915 188.358276 C 292.362915 192.945435 296.081177 196.664185 300.668823 196.664185 L 347.486328 196.664185 C 351.88916 196.664185 354.54541 201.538696 352.158325 205.237915 Z"/>
            </g>
            <path id="path2" fill="none" stroke="none" d="M 352.158325 205.237915 L 237.267456 383.318726 C 234.261597 387.977417 227.035828 385.848755 227.035828 380.304932 L 227.035828 232.734131 C 227.035828 228.146729 223.317078 224.428345 218.72998 224.428345 L 171.912537 224.428345 C 167.509155 224.428345 164.853333 219.553711 167.240417 215.854614 L 282.130859 37.773804 C 285.136597 33.11499 292.362915 35.243774 292.362915 40.787476 L 292.362915 188.358276 C 292.362915 192.945435 296.081177 196.664185 300.668823 196.664185 L 347.486328 196.664185 C 351.88916 196.664185 354.54541 201.538696 352.158325 205.237915 Z"/>
        </g>
    </g>
</svg>
